<?xml version="1.0" encoding="UTF-8"?>
<svg xmlns="http://www.w3.org/2000/svg" width="800" height="600" viewBox="0 0 800 600">
  <defs>
    <style>
      .seed { stroke: #e74c3c; stroke-width: 3; fill: none; }
      .flow { stroke: #3498db; stroke-width: 1; fill: none; opacity: 0.8; }
      .road { stroke: #2c3e50; stroke-width: 2; fill: none; }
      .parcel { stroke: #95a5a6; stroke-width: 0.5; fill: #ecf0f1; opacity: 0.6; }
      .bg { fill: #fafafa; }
    </style>
  </defs>
  <rect class="bg" width="800" height="600"/>
  <path class="seed" d="M 100.00,300.00 L 700.00,300.00"/>
  <path class="flow" d="M 100.00,300.00 L 105.00,300.00 L 110.00,300.00 L 115.00,300.00 L 120.00,300.00 L 125.00,300.00 L 130.00,300.00 L 135.00,300.00 L 140.00,300.00 L 145.00,300.00 L 150.00,300.00 L 155.00,300.00 L 160.00,300.00 L 165.00,300.00 L 170.00,300.00 L 175.00,300.00 L 180.00,300.00 L 185.00,300.00 L 190.00,300.00 L 195.00,300.00 L 200.00,300.00 L 205.00,300.00 L 210.00,300.00 L 215.00,300.00 L 220.00,300.00 L 225.00,300.00 L 230.00,300.00 L 235.00,300.00 L 240.00,300.00 L 245.00,300.00 L 250.00,300.00 L 255.00,300.00 L 260.00,300.00 L 265.00,300.00 L 270.00,300.00 L 275.00,300.00 L 280.00,300.00 L 285.00,300.00 L 290.00,300.00 L 295.00,300.00 L 300.00,300.00 L 305.00,300.00 L 310.00,300.00 L 315.00,300.00 L 320.00,300.00 L 325.00,300.00 L 330.00,300.00 L 335.00,300.00 L 340.00,300.00 L 345.00,300.00 L 350.00,300.00 L 355.00,300.00 L 360.00,300.00 L 365.00,300.00 L 370.00,300.00 L 375.00,300.00 L 380.00,300.00 L 385.00,300.00 L 390.00,300.00 L 395.00,300.00 L 400.00,300.00 L 405.00,300.00 L 410.00,300.00 L 415.00,300.00 L 420.00,300.00 L 425.00,300.00 L 430.00,300.00 L 435.00,300.00 L 440.00,300.00 L 445.00,300.00 L 450.00,300.00 L 455.00,300.00 L 460.00,300.00 L 465.00,300.00 L 470.00,300.00 L 475.00,300.00 L 480.00,300.00 L 485.00,300.00 L 490.00,300.00 L 495.00,300.00 L 500.00,300.00"/>
  <path class="flow" d="M 40.00,300.00 L 45.00,300.00 L 50.00,300.00 L 55.00,300.00 L 60.00,300.00 L 65.00,300.00 L 70.00,300.00 L 75.00,300.00 L 80.00,300.00 L 85.00,300.00 L 90.00,300.00 L 95.00,300.00 L 100.00,300.00"/>
  <path class="flow" d="M 131.58,300.00 L 136.58,300.00 L 141.58,300.00 L 146.58,300.00 L 151.58,300.00 L 156.58,300.00 L 161.58,300.00 L 166.58,300.00 L 171.58,300.00 L 176.58,300.00 L 181.58,300.00 L 186.58,300.00 L 191.58,300.00 L 196.58,300.00 L 201.58,300.00 L 206.58,300.00 L 211.58,300.00 L 216.58,300.00 L 221.58,300.00 L 226.58,300.00 L 231.58,300.00 L 236.58,300.00 L 241.58,300.00 L 246.58,300.00 L 251.58,300.00 L 256.58,300.00 L 261.58,300.00 L 266.58,300.00 L 271.58,300.00 L 276.58,300.00 L 281.58,300.00 L 286.58,300.00 L 291.58,300.00 L 296.58,300.00 L 301.58,300.00 L 306.58,300.00 L 311.58,300.00 L 316.58,300.00 L 321.58,300.00 L 326.58,300.00 L 331.58,300.00 L 336.58,300.00 L 341.58,300.00 L 346.58,300.00 L 351.58,300.00 L 356.58,300.00 L 361.58,300.00 L 366.58,300.00 L 371.58,300.00 L 376.58,300.00 L 381.58,300.00 L 386.58,300.00 L 391.58,300.00 L 396.58,300.00 L 401.58,300.00 L 406.58,300.00 L 411.58,300.00 L 416.58,300.00 L 421.58,300.00 L 426.58,300.00 L 431.58,300.00 L 436.58,300.00 L 441.58,300.00 L 446.58,300.00 L 451.58,300.00 L 456.58,300.00 L 461.58,300.00 L 466.58,300.00 L 471.58,300.00 L 476.58,300.00 L 481.58,300.00 L 486.58,300.00 L 491.58,300.00 L 496.58,300.00 L 501.58,300.00 L 506.58,300.00 L 511.58,300.00 L 516.58,300.00 L 521.58,300.00 L 526.58,300.00 L 531.58,300.00"/>
  <path class="flow" d="M 41.58,300.00 L 46.58,300.00 L 51.58,300.00 L 56.58,300.00 L 61.58,300.00 L 66.58,300.00 L 71.58,300.00 L 76.58,300.00 L 81.58,300.00 L 86.58,300.00 L 91.58,300.00 L 96.58,300.00 L 101.58,300.00 L 106.58,300.00 L 111.58,300.00 L 116.58,300.00 L 121.58,300.00 L 126.58,300.00 L 131.58,300.00"/>
  <path class="flow" d="M 163.16,300.00 L 168.16,300.00 L 173.16,300.00 L 178.16,300.00 L 183.16,300.00 L 188.16,300.00 L 193.16,300.00 L 198.16,300.00 L 203.16,300.00 L 208.16,300.00 L 213.16,300.00 L 218.16,300.00 L 223.16,300.00 L 228.16,300.00 L 233.16,300.00 L 238.16,300.00 L 243.16,300.00 L 248.16,300.00 L 253.16,300.00 L 258.16,300.00 L 263.16,300.00 L 268.16,300.00 L 273.16,300.00 L 278.16,300.00 L 283.16,300.00 L 288.16,300.00 L 293.16,300.00 L 298.16,300.00 L 303.16,300.00 L 308.16,300.00 L 313.16,300.00 L 318.16,300.00 L 323.16,300.00 L 328.16,300.00 L 333.16,300.00 L 338.16,300.00 L 343.16,300.00 L 348.16,300.00 L 353.16,300.00 L 358.16,300.00 L 363.16,300.00 L 368.16,300.00 L 373.16,300.00 L 378.16,300.00 L 383.16,300.00 L 388.16,300.00 L 393.16,300.00 L 398.16,300.00 L 403.16,300.00 L 408.16,300.00 L 413.16,300.00 L 418.16,300.00 L 423.16,300.00 L 428.16,300.00 L 433.16,300.00 L 438.16,300.00 L 443.16,300.00 L 448.16,300.00 L 453.16,300.00 L 458.16,300.00 L 463.16,300.00 L 468.16,300.00 L 473.16,300.00 L 478.16,300.00 L 483.16,300.00 L 488.16,300.00 L 493.16,300.00 L 498.16,300.00 L 503.16,300.00 L 508.16,300.00 L 513.16,300.00 L 518.16,300.00 L 523.16,300.00 L 528.16,300.00 L 533.16,300.00 L 538.16,300.00 L 543.16,300.00 L 548.16,300.00 L 553.16,300.00 L 558.16,300.00 L 563.16,300.00"/>
  <path class="flow" d="M 43.16,300.00 L 48.16,300.00 L 53.16,300.00 L 58.16,300.00 L 63.16,300.00 L 68.16,300.00 L 73.16,300.00 L 78.16,300.00 L 83.16,300.00 L 88.16,300.00 L 93.16,300.00 L 98.16,300.00 L 103.16,300.00 L 108.16,300.00 L 113.16,300.00 L 118.16,300.00 L 123.16,300.00 L 128.16,300.00 L 133.16,300.00 L 138.16,300.00 L 143.16,300.00 L 148.16,300.00 L 153.16,300.00 L 158.16,300.00 L 163.16,300.00"/>
  <path class="flow" d="M 194.74,300.00 L 199.74,300.00 L 204.74,300.00 L 209.74,300.00 L 214.74,300.00 L 219.74,300.00 L 224.74,300.00 L 229.74,300.00 L 234.74,300.00 L 239.74,300.00 L 244.74,300.00 L 249.74,300.00 L 254.74,300.00 L 259.74,300.00 L 264.74,300.00 L 269.74,300.00 L 274.74,300.00 L 279.74,300.00 L 284.74,300.00 L 289.74,300.00 L 294.74,300.00 L 299.74,300.00 L 304.74,300.00 L 309.74,300.00 L 314.74,300.00 L 319.74,300.00 L 324.74,300.00 L 329.74,300.00 L 334.74,300.00 L 339.74,300.00 L 344.74,300.00 L 349.74,300.00 L 354.74,300.00 L 359.74,300.00 L 364.74,300.00 L 369.74,300.00 L 374.74,300.00 L 379.74,300.00 L 384.74,300.00 L 389.74,300.00 L 394.74,300.00 L 399.74,300.00 L 404.74,300.00 L 409.74,300.00 L 414.74,300.00 L 419.74,300.00 L 424.74,300.00 L 429.74,300.00 L 434.74,300.00 L 439.74,300.00 L 444.74,300.00 L 449.74,300.00 L 454.74,300.00 L 459.74,300.00 L 464.74,300.00 L 469.74,300.00 L 474.74,300.00 L 479.74,300.00 L 484.74,300.00 L 489.74,300.00 L 494.74,300.00 L 499.74,300.00 L 504.74,300.00 L 509.74,300.00 L 514.74,300.00 L 519.74,300.00 L 524.74,300.00 L 529.74,300.00 L 534.74,300.00 L 539.74,300.00 L 544.74,300.00 L 549.74,300.00 L 554.74,300.00 L 559.74,300.00 L 564.74,300.00 L 569.74,300.00 L 574.74,300.00 L 579.74,300.00 L 584.74,300.00 L 589.74,300.00 L 594.74,300.00"/>
  <path class="flow" d="M 44.74,300.00 L 49.74,300.00 L 54.74,300.00 L 59.74,300.00 L 64.74,300.00 L 69.74,300.00 L 74.74,300.00 L 79.74,300.00 L 84.74,300.00 L 89.74,300.00 L 94.74,300.00 L 99.74,300.00 L 104.74,300.00 L 109.74,300.00 L 114.74,300.00 L 119.74,300.00 L 124.74,300.00 L 129.74,300.00 L 134.74,300.00 L 139.74,300.00 L 144.74,300.00 L 149.74,300.00 L 154.74,300.00 L 159.74,300.00 L 164.74,300.00 L 169.74,300.00 L 174.74,300.00 L 179.74,300.00 L 184.74,300.00 L 189.74,300.00 L 194.74,300.00"/>
  <path class="flow" d="M 226.32,300.00 L 231.32,300.00 L 236.32,300.00 L 241.32,300.00 L 246.32,300.00 L 251.32,300.00 L 256.32,300.00 L 261.32,300.00 L 266.32,300.00 L 271.32,300.00 L 276.32,300.00 L 281.32,300.00 L 286.32,300.00 L 291.32,300.00 L 296.32,300.00 L 301.32,300.00 L 306.32,300.00 L 311.32,300.00 L 316.32,300.00 L 321.32,300.00 L 326.32,300.00 L 331.32,300.00 L 336.32,300.00 L 341.32,300.00 L 346.32,300.00 L 351.32,300.00 L 356.32,300.00 L 361.32,300.00 L 366.32,300.00 L 371.32,300.00 L 376.32,300.00 L 381.32,300.00 L 386.32,300.00 L 391.32,300.00 L 396.32,300.00 L 401.32,300.00 L 406.32,300.00 L 411.32,300.00 L 416.32,300.00 L 421.32,300.00 L 426.32,300.00 L 431.32,300.00 L 436.32,300.00 L 441.32,300.00 L 446.32,300.00 L 451.32,300.00 L 456.32,300.00 L 461.32,300.00 L 466.32,300.00 L 471.32,300.00 L 476.32,300.00 L 481.32,300.00 L 486.32,300.00 L 491.32,300.00 L 496.32,300.00 L 501.32,300.00 L 506.32,300.00 L 511.32,300.00 L 516.32,300.00 L 521.32,300.00 L 526.32,300.00 L 531.32,300.00 L 536.32,300.00 L 541.32,300.00 L 546.32,300.00 L 551.32,300.00 L 556.32,300.00 L 561.32,300.00 L 566.32,300.00 L 571.32,300.00 L 576.32,300.00 L 581.32,300.00 L 586.32,300.00 L 591.32,300.00 L 596.32,300.00 L 601.32,300.00 L 606.32,300.00 L 611.32,300.00 L 616.32,300.00 L 621.32,300.00 L 626.32,300.00"/>
  <path class="flow" d="M 41.32,300.00 L 46.32,300.00 L 51.32,300.00 L 56.32,300.00 L 61.32,300.00 L 66.32,300.00 L 71.32,300.00 L 76.32,300.00 L 81.32,300.00 L 86.32,300.00 L 91.32,300.00 L 96.32,300.00 L 101.32,300.00 L 106.32,300.00 L 111.32,300.00 L 116.32,300.00 L 121.32,300.00 L 126.32,300.00 L 131.32,300.00 L 136.32,300.00 L 141.32,300.00 L 146.32,300.00 L 151.32,300.00 L 156.32,300.00 L 161.32,300.00 L 166.32,300.00 L 171.32,300.00 L 176.32,300.00 L 181.32,300.00 L 186.32,300.00 L 191.32,300.00 L 196.32,300.00 L 201.32,300.00 L 206.32,300.00 L 211.32,300.00 L 216.32,300.00 L 221.32,300.00 L 226.32,300.00"/>
  <path class="flow" d="M 257.89,300.00 L 262.89,300.00 L 267.89,300.00 L 272.89,300.00 L 277.89,300.00 L 282.89,300.00 L 287.89,300.00 L 292.89,300.00 L 297.89,300.00 L 302.89,300.00 L 307.89,300.00 L 312.89,300.00 L 317.89,300.00 L 322.89,300.00 L 327.89,300.00 L 332.89,300.00 L 337.89,300.00 L 342.89,300.00 L 347.89,300.00 L 352.89,300.00 L 357.89,300.00 L 362.89,300.00 L 367.89,300.00 L 372.89,300.00 L 377.89,300.00 L 382.89,300.00 L 387.89,300.00 L 392.89,300.00 L 397.89,300.00 L 402.89,300.00 L 407.89,300.00 L 412.89,300.00 L 417.89,300.00 L 422.89,300.00 L 427.89,300.00 L 432.89,300.00 L 437.89,300.00 L 442.89,300.00 L 447.89,300.00 L 452.89,300.00 L 457.89,300.00 L 462.89,300.00 L 467.89,300.00 L 472.89,300.00 L 477.89,300.00 L 482.89,300.00 L 487.89,300.00 L 492.89,300.00 L 497.89,300.00 L 502.89,300.00 L 507.89,300.00 L 512.89,300.00 L 517.89,300.00 L 522.89,300.00 L 527.89,300.00 L 532.89,300.00 L 537.89,300.00 L 542.89,300.00 L 547.89,300.00 L 552.89,300.00 L 557.89,300.00 L 562.89,300.00 L 567.89,300.00 L 572.89,300.00 L 577.89,300.00 L 582.89,300.00 L 587.89,300.00 L 592.89,300.00 L 597.89,300.00 L 602.89,300.00 L 607.89,300.00 L 612.89,300.00 L 617.89,300.00 L 622.89,300.00 L 627.89,300.00 L 632.89,300.00 L 637.89,300.00 L 642.89,300.00 L 647.89,300.00 L 652.89,300.00 L 657.89,300.00"/>
  <path class="flow" d="M 42.89,300.00 L 47.89,300.00 L 52.89,300.00 L 57.89,300.00 L 62.89,300.00 L 67.89,300.00 L 72.89,300.00 L 77.89,300.00 L 82.89,300.00 L 87.89,300.00 L 92.89,300.00 L 97.89,300.00 L 102.89,300.00 L 107.89,300.00 L 112.89,300.00 L 117.89,300.00 L 122.89,300.00 L 127.89,300.00 L 132.89,300.00 L 137.89,300.00 L 142.89,300.00 L 147.89,300.00 L 152.89,300.00 L 157.89,300.00 L 162.89,300.00 L 167.89,300.00 L 172.89,300.00 L 177.89,300.00 L 182.89,300.00 L 187.89,300.00 L 192.89,300.00 L 197.89,300.00 L 202.89,300.00 L 207.89,300.00 L 212.89,300.00 L 217.89,300.00 L 222.89,300.00 L 227.89,300.00 L 232.89,300.00 L 237.89,300.00 L 242.89,300.00 L 247.89,300.00 L 252.89,300.00 L 257.89,300.00"/>
  <path class="flow" d="M 289.47,300.00 L 294.47,300.00 L 299.47,300.00 L 304.47,300.00 L 309.47,300.00 L 314.47,300.00 L 319.47,300.00 L 324.47,300.00 L 329.47,300.00 L 334.47,300.00 L 339.47,300.00 L 344.47,300.00 L 349.47,300.00 L 354.47,300.00 L 359.47,300.00 L 364.47,300.00 L 369.47,300.00 L 374.47,300.00 L 379.47,300.00 L 384.47,300.00 L 389.47,300.00 L 394.47,300.00 L 399.47,300.00 L 404.47,300.00 L 409.47,300.00 L 414.47,300.00 L 419.47,300.00 L 424.47,300.00 L 429.47,300.00 L 434.47,300.00 L 439.47,300.00 L 444.47,300.00 L 449.47,300.00 L 454.47,300.00 L 459.47,300.00 L 464.47,300.00 L 469.47,300.00 L 474.47,300.00 L 479.47,300.00 L 484.47,300.00 L 489.47,300.00 L 494.47,300.00 L 499.47,300.00 L 504.47,300.00 L 509.47,300.00 L 514.47,300.00 L 519.47,300.00 L 524.47,300.00 L 529.47,300.00 L 534.47,300.00 L 539.47,300.00 L 544.47,300.00 L 549.47,300.00 L 554.47,300.00 L 559.47,300.00 L 564.47,300.00 L 569.47,300.00 L 574.47,300.00 L 579.47,300.00 L 584.47,300.00 L 589.47,300.00 L 594.47,300.00 L 599.47,300.00 L 604.47,300.00 L 609.47,300.00 L 614.47,300.00 L 619.47,300.00 L 624.47,300.00 L 629.47,300.00 L 634.47,300.00 L 639.47,300.00 L 644.47,300.00 L 649.47,300.00 L 654.47,300.00 L 659.47,300.00 L 664.47,300.00 L 669.47,300.00 L 674.47,300.00 L 679.47,300.00 L 684.47,300.00 L 689.47,300.00"/>
  <path class="flow" d="M 44.47,300.00 L 49.47,300.00 L 54.47,300.00 L 59.47,300.00 L 64.47,300.00 L 69.47,300.00 L 74.47,300.00 L 79.47,300.00 L 84.47,300.00 L 89.47,300.00 L 94.47,300.00 L 99.47,300.00 L 104.47,300.00 L 109.47,300.00 L 114.47,300.00 L 119.47,300.00 L 124.47,300.00 L 129.47,300.00 L 134.47,300.00 L 139.47,300.00 L 144.47,300.00 L 149.47,300.00 L 154.47,300.00 L 159.47,300.00 L 164.47,300.00 L 169.47,300.00 L 174.47,300.00 L 179.47,300.00 L 184.47,300.00 L 189.47,300.00 L 194.47,300.00 L 199.47,300.00 L 204.47,300.00 L 209.47,300.00 L 214.47,300.00 L 219.47,300.00 L 224.47,300.00 L 229.47,300.00 L 234.47,300.00 L 239.47,300.00 L 244.47,300.00 L 249.47,300.00 L 254.47,300.00 L 259.47,300.00 L 264.47,300.00 L 269.47,300.00 L 274.47,300.00 L 279.47,300.00 L 284.47,300.00 L 289.47,300.00"/>
  <path class="flow" d="M 321.05,300.00 L 326.05,300.00 L 331.05,300.00 L 336.05,300.00 L 341.05,300.00 L 346.05,300.00 L 351.05,300.00 L 356.05,300.00 L 361.05,300.00 L 366.05,300.00 L 371.05,300.00 L 376.05,300.00 L 381.05,300.00 L 386.05,300.00 L 391.05,300.00 L 396.05,300.00 L 401.05,300.00 L 406.05,300.00 L 411.05,300.00 L 416.05,300.00 L 421.05,300.00 L 426.05,300.00 L 431.05,300.00 L 436.05,300.00 L 441.05,300.00 L 446.05,300.00 L 451.05,300.00 L 456.05,300.00 L 461.05,300.00 L 466.05,300.00 L 471.05,300.00 L 476.05,300.00 L 481.05,300.00 L 486.05,300.00 L 491.05,300.00 L 496.05,300.00 L 501.05,300.00 L 506.05,300.00 L 511.05,300.00 L 516.05,300.00 L 521.05,300.00 L 526.05,300.00 L 531.05,300.00 L 536.05,300.00 L 541.05,300.00 L 546.05,300.00 L 551.05,300.00 L 556.05,300.00 L 561.05,300.00 L 566.05,300.00 L 571.05,300.00 L 576.05,300.00 L 581.05,300.00 L 586.05,300.00 L 591.05,300.00 L 596.05,300.00 L 601.05,300.00 L 606.05,300.00 L 611.05,300.00 L 616.05,300.00 L 621.05,300.00 L 626.05,300.00 L 631.05,300.00 L 636.05,300.00 L 641.05,300.00 L 646.05,300.00 L 651.05,300.00 L 656.05,300.00 L 661.05,300.00 L 666.05,300.00 L 671.05,300.00 L 676.05,300.00 L 681.05,300.00 L 686.05,300.00 L 691.05,300.00 L 696.05,300.00 L 701.05,300.00 L 706.05,300.00 L 711.05,300.00 L 716.05,300.00 L 721.05,300.00"/>
  <path class="flow" d="M 41.05,300.00 L 46.05,300.00 L 51.05,300.00 L 56.05,300.00 L 61.05,300.00 L 66.05,300.00 L 71.05,300.00 L 76.05,300.00 L 81.05,300.00 L 86.05,300.00 L 91.05,300.00 L 96.05,300.00 L 101.05,300.00 L 106.05,300.00 L 111.05,300.00 L 116.05,300.00 L 121.05,300.00 L 126.05,300.00 L 131.05,300.00 L 136.05,300.00 L 141.05,300.00 L 146.05,300.00 L 151.05,300.00 L 156.05,300.00 L 161.05,300.00 L 166.05,300.00 L 171.05,300.00 L 176.05,300.00 L 181.05,300.00 L 186.05,300.00 L 191.05,300.00 L 196.05,300.00 L 201.05,300.00 L 206.05,300.00 L 211.05,300.00 L 216.05,300.00 L 221.05,300.00 L 226.05,300.00 L 231.05,300.00 L 236.05,300.00 L 241.05,300.00 L 246.05,300.00 L 251.05,300.00 L 256.05,300.00 L 261.05,300.00 L 266.05,300.00 L 271.05,300.00 L 276.05,300.00 L 281.05,300.00 L 286.05,300.00 L 291.05,300.00 L 296.05,300.00 L 301.05,300.00 L 306.05,300.00 L 311.05,300.00 L 316.05,300.00 L 321.05,300.00"/>
  <path class="flow" d="M 352.63,300.00 L 357.63,300.00 L 362.63,300.00 L 367.63,300.00 L 372.63,300.00 L 377.63,300.00 L 382.63,300.00 L 387.63,300.00 L 392.63,300.00 L 397.63,300.00 L 402.63,300.00 L 407.63,300.00 L 412.63,300.00 L 417.63,300.00 L 422.63,300.00 L 427.63,300.00 L 432.63,300.00 L 437.63,300.00 L 442.63,300.00 L 447.63,300.00 L 452.63,300.00 L 457.63,300.00 L 462.63,300.00 L 467.63,300.00 L 472.63,300.00 L 477.63,300.00 L 482.63,300.00 L 487.63,300.00 L 492.63,300.00 L 497.63,300.00 L 502.63,300.00 L 507.63,300.00 L 512.63,300.00 L 517.63,300.00 L 522.63,300.00 L 527.63,300.00 L 532.63,300.00 L 537.63,300.00 L 542.63,300.00 L 547.63,300.00 L 552.63,300.00 L 557.63,300.00 L 562.63,300.00 L 567.63,300.00 L 572.63,300.00 L 577.63,300.00 L 582.63,300.00 L 587.63,300.00 L 592.63,300.00 L 597.63,300.00 L 602.63,300.00 L 607.63,300.00 L 612.63,300.00 L 617.63,300.00 L 622.63,300.00 L 627.63,300.00 L 632.63,300.00 L 637.63,300.00 L 642.63,300.00 L 647.63,300.00 L 652.63,300.00 L 657.63,300.00 L 662.63,300.00 L 667.63,300.00 L 672.63,300.00 L 677.63,300.00 L 682.63,300.00 L 687.63,300.00 L 692.63,300.00 L 697.63,300.00 L 702.63,300.00 L 707.63,300.00 L 712.63,300.00 L 717.63,300.00 L 722.63,300.00 L 727.63,300.00 L 732.63,300.00 L 737.63,300.00 L 742.63,300.00 L 747.63,300.00 L 752.63,300.00"/>
  <path class="flow" d="M 42.63,300.00 L 47.63,300.00 L 52.63,300.00 L 57.63,300.00 L 62.63,300.00 L 67.63,300.00 L 72.63,300.00 L 77.63,300.00 L 82.63,300.00 L 87.63,300.00 L 92.63,300.00 L 97.63,300.00 L 102.63,300.00 L 107.63,300.00 L 112.63,300.00 L 117.63,300.00 L 122.63,300.00 L 127.63,300.00 L 132.63,300.00 L 137.63,300.00 L 142.63,300.00 L 147.63,300.00 L 152.63,300.00 L 157.63,300.00 L 162.63,300.00 L 167.63,300.00 L 172.63,300.00 L 177.63,300.00 L 182.63,300.00 L 187.63,300.00 L 192.63,300.00 L 197.63,300.00 L 202.63,300.00 L 207.63,300.00 L 212.63,300.00 L 217.63,300.00 L 222.63,300.00 L 227.63,300.00 L 232.63,300.00 L 237.63,300.00 L 242.63,300.00 L 247.63,300.00 L 252.63,300.00 L 257.63,300.00 L 262.63,300.00 L 267.63,300.00 L 272.63,300.00 L 277.63,300.00 L 282.63,300.00 L 287.63,300.00 L 292.63,300.00 L 297.63,300.00 L 302.63,300.00 L 307.63,300.00 L 312.63,300.00 L 317.63,300.00 L 322.63,300.00 L 327.63,300.00 L 332.63,300.00 L 337.63,300.00 L 342.63,300.00 L 347.63,300.00 L 352.63,300.00"/>
  <path class="flow" d="M 384.21,300.00 L 389.21,300.00 L 394.21,300.00 L 399.21,300.00 L 404.21,300.00 L 409.21,300.00 L 414.21,300.00 L 419.21,300.00 L 424.21,300.00 L 429.21,300.00 L 434.21,300.00 L 439.21,300.00 L 444.21,300.00 L 449.21,300.00 L 454.21,300.00 L 459.21,300.00 L 464.21,300.00 L 469.21,300.00 L 474.21,300.00 L 479.21,300.00 L 484.21,300.00 L 489.21,300.00 L 494.21,300.00 L 499.21,300.00 L 504.21,300.00 L 509.21,300.00 L 514.21,300.00 L 519.21,300.00 L 524.21,300.00 L 529.21,300.00 L 534.21,300.00 L 539.21,300.00 L 544.21,300.00 L 549.21,300.00 L 554.21,300.00 L 559.21,300.00 L 564.21,300.00 L 569.21,300.00 L 574.21,300.00 L 579.21,300.00 L 584.21,300.00 L 589.21,300.00 L 594.21,300.00 L 599.21,300.00 L 604.21,300.00 L 609.21,300.00 L 614.21,300.00 L 619.21,300.00 L 624.21,300.00 L 629.21,300.00 L 634.21,300.00 L 639.21,300.00 L 644.21,300.00 L 649.21,300.00 L 654.21,300.00 L 659.21,300.00 L 664.21,300.00 L 669.21,300.00 L 674.21,300.00 L 679.21,300.00 L 684.21,300.00 L 689.21,300.00 L 694.21,300.00 L 699.21,300.00 L 704.21,300.00 L 709.21,300.00 L 714.21,300.00 L 719.21,300.00 L 724.21,300.00 L 729.21,300.00 L 734.21,300.00 L 739.21,300.00 L 744.21,300.00 L 749.21,300.00 L 754.21,300.00 L 759.21,300.00"/>
  <path class="flow" d="M 44.21,300.00 L 49.21,300.00 L 54.21,300.00 L 59.21,300.00 L 64.21,300.00 L 69.21,300.00 L 74.21,300.00 L 79.21,300.00 L 84.21,300.00 L 89.21,300.00 L 94.21,300.00 L 99.21,300.00 L 104.21,300.00 L 109.21,300.00 L 114.21,300.00 L 119.21,300.00 L 124.21,300.00 L 129.21,300.00 L 134.21,300.00 L 139.21,300.00 L 144.21,300.00 L 149.21,300.00 L 154.21,300.00 L 159.21,300.00 L 164.21,300.00 L 169.21,300.00 L 174.21,300.00 L 179.21,300.00 L 184.21,300.00 L 189.21,300.00 L 194.21,300.00 L 199.21,300.00 L 204.21,300.00 L 209.21,300.00 L 214.21,300.00 L 219.21,300.00 L 224.21,300.00 L 229.21,300.00 L 234.21,300.00 L 239.21,300.00 L 244.21,300.00 L 249.21,300.00 L 254.21,300.00 L 259.21,300.00 L 264.21,300.00 L 269.21,300.00 L 274.21,300.00 L 279.21,300.00 L 284.21,300.00 L 289.21,300.00 L 294.21,300.00 L 299.21,300.00 L 304.21,300.00 L 309.21,300.00 L 314.21,300.00 L 319.21,300.00 L 324.21,300.00 L 329.21,300.00 L 334.21,300.00 L 339.21,300.00 L 344.21,300.00 L 349.21,300.00 L 354.21,300.00 L 359.21,300.00 L 364.21,300.00 L 369.21,300.00 L 374.21,300.00 L 379.21,300.00 L 384.21,300.00"/>
  <path class="flow" d="M 415.79,300.00 L 420.79,300.00 L 425.79,300.00 L 430.79,300.00 L 435.79,300.00 L 440.79,300.00 L 445.79,300.00 L 450.79,300.00 L 455.79,300.00 L 460.79,300.00 L 465.79,300.00 L 470.79,300.00 L 475.79,300.00 L 480.79,300.00 L 485.79,300.00 L 490.79,300.00 L 495.79,300.00 L 500.79,300.00 L 505.79,300.00 L 510.79,300.00 L 515.79,300.00 L 520.79,300.00 L 525.79,300.00 L 530.79,300.00 L 535.79,300.00 L 540.79,300.00 L 545.79,300.00 L 550.79,300.00 L 555.79,300.00 L 560.79,300.00 L 565.79,300.00 L 570.79,300.00 L 575.79,300.00 L 580.79,300.00 L 585.79,300.00 L 590.79,300.00 L 595.79,300.00 L 600.79,300.00 L 605.79,300.00 L 610.79,300.00 L 615.79,300.00 L 620.79,300.00 L 625.79,300.00 L 630.79,300.00 L 635.79,300.00 L 640.79,300.00 L 645.79,300.00 L 650.79,300.00 L 655.79,300.00 L 660.79,300.00 L 665.79,300.00 L 670.79,300.00 L 675.79,300.00 L 680.79,300.00 L 685.79,300.00 L 690.79,300.00 L 695.79,300.00 L 700.79,300.00 L 705.79,300.00 L 710.79,300.00 L 715.79,300.00 L 720.79,300.00 L 725.79,300.00 L 730.79,300.00 L 735.79,300.00 L 740.79,300.00 L 745.79,300.00 L 750.79,300.00 L 755.79,300.00"/>
  <path class="flow" d="M 40.79,300.00 L 45.79,300.00 L 50.79,300.00 L 55.79,300.00 L 60.79,300.00 L 65.79,300.00 L 70.79,300.00 L 75.79,300.00 L 80.79,300.00 L 85.79,300.00 L 90.79,300.00 L 95.79,300.00 L 100.79,300.00 L 105.79,300.00 L 110.79,300.00 L 115.79,300.00 L 120.79,300.00 L 125.79,300.00 L 130.79,300.00 L 135.79,300.00 L 140.79,300.00 L 145.79,300.00 L 150.79,300.00 L 155.79,300.00 L 160.79,300.00 L 165.79,300.00 L 170.79,300.00 L 175.79,300.00 L 180.79,300.00 L 185.79,300.00 L 190.79,300.00 L 195.79,300.00 L 200.79,300.00 L 205.79,300.00 L 210.79,300.00 L 215.79,300.00 L 220.79,300.00 L 225.79,300.00 L 230.79,300.00 L 235.79,300.00 L 240.79,300.00 L 245.79,300.00 L 250.79,300.00 L 255.79,300.00 L 260.79,300.00 L 265.79,300.00 L 270.79,300.00 L 275.79,300.00 L 280.79,300.00 L 285.79,300.00 L 290.79,300.00 L 295.79,300.00 L 300.79,300.00 L 305.79,300.00 L 310.79,300.00 L 315.79,300.00 L 320.79,300.00 L 325.79,300.00 L 330.79,300.00 L 335.79,300.00 L 340.79,300.00 L 345.79,300.00 L 350.79,300.00 L 355.79,300.00 L 360.79,300.00 L 365.79,300.00 L 370.79,300.00 L 375.79,300.00 L 380.79,300.00 L 385.79,300.00 L 390.79,300.00 L 395.79,300.00 L 400.79,300.00 L 405.79,300.00 L 410.79,300.00 L 415.79,300.00"/>
  <path class="flow" d="M 447.37,300.00 L 452.37,300.00 L 457.37,300.00 L 462.37,300.00 L 467.37,300.00 L 472.37,300.00 L 477.37,300.00 L 482.37,300.00 L 487.37,300.00 L 492.37,300.00 L 497.37,300.00 L 502.37,300.00 L 507.37,300.00 L 512.37,300.00 L 517.37,300.00 L 522.37,300.00 L 527.37,300.00 L 532.37,300.00 L 537.37,300.00 L 542.37,300.00 L 547.37,300.00 L 552.37,300.00 L 557.37,300.00 L 562.37,300.00 L 567.37,300.00 L 572.37,300.00 L 577.37,300.00 L 582.37,300.00 L 587.37,300.00 L 592.37,300.00 L 597.37,300.00 L 602.37,300.00 L 607.37,300.00 L 612.37,300.00 L 617.37,300.00 L 622.37,300.00 L 627.37,300.00 L 632.37,300.00 L 637.37,300.00 L 642.37,300.00 L 647.37,300.00 L 652.37,300.00 L 657.37,300.00 L 662.37,300.00 L 667.37,300.00 L 672.37,300.00 L 677.37,300.00 L 682.37,300.00 L 687.37,300.00 L 692.37,300.00 L 697.37,300.00 L 702.37,300.00 L 707.37,300.00 L 712.37,300.00 L 717.37,300.00 L 722.37,300.00 L 727.37,300.00 L 732.37,300.00 L 737.37,300.00 L 742.37,300.00 L 747.37,300.00 L 752.37,300.00 L 757.37,300.00"/>
  <path class="flow" d="M 47.37,300.00 L 52.37,300.00 L 57.37,300.00 L 62.37,300.00 L 67.37,300.00 L 72.37,300.00 L 77.37,300.00 L 82.37,300.00 L 87.37,300.00 L 92.37,300.00 L 97.37,300.00 L 102.37,300.00 L 107.37,300.00 L 112.37,300.00 L 117.37,300.00 L 122.37,300.00 L 127.37,300.00 L 132.37,300.00 L 137.37,300.00 L 142.37,300.00 L 147.37,300.00 L 152.37,300.00 L 157.37,300.00 L 162.37,300.00 L 167.37,300.00 L 172.37,300.00 L 177.37,300.00 L 182.37,300.00 L 187.37,300.00 L 192.37,300.00 L 197.37,300.00 L 202.37,300.00 L 207.37,300.00 L 212.37,300.00 L 217.37,300.00 L 222.37,300.00 L 227.37,300.00 L 232.37,300.00 L 237.37,300.00 L 242.37,300.00 L 247.37,300.00 L 252.37,300.00 L 257.37,300.00 L 262.37,300.00 L 267.37,300.00 L 272.37,300.00 L 277.37,300.00 L 282.37,300.00 L 287.37,300.00 L 292.37,300.00 L 297.37,300.00 L 302.37,300.00 L 307.37,300.00 L 312.37,300.00 L 317.37,300.00 L 322.37,300.00 L 327.37,300.00 L 332.37,300.00 L 337.37,300.00 L 342.37,300.00 L 347.37,300.00 L 352.37,300.00 L 357.37,300.00 L 362.37,300.00 L 367.37,300.00 L 372.37,300.00 L 377.37,300.00 L 382.37,300.00 L 387.37,300.00 L 392.37,300.00 L 397.37,300.00 L 402.37,300.00 L 407.37,300.00 L 412.37,300.00 L 417.37,300.00 L 422.37,300.00 L 427.37,300.00 L 432.37,300.00 L 437.37,300.00 L 442.37,300.00 L 447.37,300.00"/>
  <path class="flow" d="M 478.95,300.00 L 483.95,300.00 L 488.95,300.00 L 493.95,300.00 L 498.95,300.00 L 503.95,300.00 L 508.95,300.00 L 513.95,300.00 L 518.95,300.00 L 523.95,300.00 L 528.95,300.00 L 533.95,300.00 L 538.95,300.00 L 543.95,300.00 L 548.95,300.00 L 553.95,300.00 L 558.95,300.00 L 563.95,300.00 L 568.95,300.00 L 573.95,300.00 L 578.95,300.00 L 583.95,300.00 L 588.95,300.00 L 593.95,300.00 L 598.95,300.00 L 603.95,300.00 L 608.95,300.00 L 613.95,300.00 L 618.95,300.00 L 623.95,300.00 L 628.95,300.00 L 633.95,300.00 L 638.95,300.00 L 643.95,300.00 L 648.95,300.00 L 653.95,300.00 L 658.95,300.00 L 663.95,300.00 L 668.95,300.00 L 673.95,300.00 L 678.95,300.00 L 683.95,300.00 L 688.95,300.00 L 693.95,300.00 L 698.95,300.00 L 703.95,300.00 L 708.95,300.00 L 713.95,300.00 L 718.95,300.00 L 723.95,300.00 L 728.95,300.00 L 733.95,300.00 L 738.95,300.00 L 743.95,300.00 L 748.95,300.00 L 753.95,300.00 L 758.95,300.00"/>
  <path class="flow" d="M 78.95,300.00 L 83.95,300.00 L 88.95,300.00 L 93.95,300.00 L 98.95,300.00 L 103.95,300.00 L 108.95,300.00 L 113.95,300.00 L 118.95,300.00 L 123.95,300.00 L 128.95,300.00 L 133.95,300.00 L 138.95,300.00 L 143.95,300.00 L 148.95,300.00 L 153.95,300.00 L 158.95,300.00 L 163.95,300.00 L 168.95,300.00 L 173.95,300.00 L 178.95,300.00 L 183.95,300.00 L 188.95,300.00 L 193.95,300.00 L 198.95,300.00 L 203.95,300.00 L 208.95,300.00 L 213.95,300.00 L 218.95,300.00 L 223.95,300.00 L 228.95,300.00 L 233.95,300.00 L 238.95,300.00 L 243.95,300.00 L 248.95,300.00 L 253.95,300.00 L 258.95,300.00 L 263.95,300.00 L 268.95,300.00 L 273.95,300.00 L 278.95,300.00 L 283.95,300.00 L 288.95,300.00 L 293.95,300.00 L 298.95,300.00 L 303.95,300.00 L 308.95,300.00 L 313.95,300.00 L 318.95,300.00 L 323.95,300.00 L 328.95,300.00 L 333.95,300.00 L 338.95,300.00 L 343.95,300.00 L 348.95,300.00 L 353.95,300.00 L 358.95,300.00 L 363.95,300.00 L 368.95,300.00 L 373.95,300.00 L 378.95,300.00 L 383.95,300.00 L 388.95,300.00 L 393.95,300.00 L 398.95,300.00 L 403.95,300.00 L 408.95,300.00 L 413.95,300.00 L 418.95,300.00 L 423.95,300.00 L 428.95,300.00 L 433.95,300.00 L 438.95,300.00 L 443.95,300.00 L 448.95,300.00 L 453.95,300.00 L 458.95,300.00 L 463.95,300.00 L 468.95,300.00 L 473.95,300.00 L 478.95,300.00"/>
  <path class="flow" d="M 510.53,300.00 L 515.53,300.00 L 520.53,300.00 L 525.53,300.00 L 530.53,300.00 L 535.53,300.00 L 540.53,300.00 L 545.53,300.00 L 550.53,300.00 L 555.53,300.00 L 560.53,300.00 L 565.53,300.00 L 570.53,300.00 L 575.53,300.00 L 580.53,300.00 L 585.53,300.00 L 590.53,300.00 L 595.53,300.00 L 600.53,300.00 L 605.53,300.00 L 610.53,300.00 L 615.53,300.00 L 620.53,300.00 L 625.53,300.00 L 630.53,300.00 L 635.53,300.00 L 640.53,300.00 L 645.53,300.00 L 650.53,300.00 L 655.53,300.00 L 660.53,300.00 L 665.53,300.00 L 670.53,300.00 L 675.53,300.00 L 680.53,300.00 L 685.53,300.00 L 690.53,300.00 L 695.53,300.00 L 700.53,300.00 L 705.53,300.00 L 710.53,300.00 L 715.53,300.00 L 720.53,300.00 L 725.53,300.00 L 730.53,300.00 L 735.53,300.00 L 740.53,300.00 L 745.53,300.00 L 750.53,300.00 L 755.53,300.00"/>
  <path class="flow" d="M 110.53,300.00 L 115.53,300.00 L 120.53,300.00 L 125.53,300.00 L 130.53,300.00 L 135.53,300.00 L 140.53,300.00 L 145.53,300.00 L 150.53,300.00 L 155.53,300.00 L 160.53,300.00 L 165.53,300.00 L 170.53,300.00 L 175.53,300.00 L 180.53,300.00 L 185.53,300.00 L 190.53,300.00 L 195.53,300.00 L 200.53,300.00 L 205.53,300.00 L 210.53,300.00 L 215.53,300.00 L 220.53,300.00 L 225.53,300.00 L 230.53,300.00 L 235.53,300.00 L 240.53,300.00 L 245.53,300.00 L 250.53,300.00 L 255.53,300.00 L 260.53,300.00 L 265.53,300.00 L 270.53,300.00 L 275.53,300.00 L 280.53,300.00 L 285.53,300.00 L 290.53,300.00 L 295.53,300.00 L 300.53,300.00 L 305.53,300.00 L 310.53,300.00 L 315.53,300.00 L 320.53,300.00 L 325.53,300.00 L 330.53,300.00 L 335.53,300.00 L 340.53,300.00 L 345.53,300.00 L 350.53,300.00 L 355.53,300.00 L 360.53,300.00 L 365.53,300.00 L 370.53,300.00 L 375.53,300.00 L 380.53,300.00 L 385.53,300.00 L 390.53,300.00 L 395.53,300.00 L 400.53,300.00 L 405.53,300.00 L 410.53,300.00 L 415.53,300.00 L 420.53,300.00 L 425.53,300.00 L 430.53,300.00 L 435.53,300.00 L 440.53,300.00 L 445.53,300.00 L 450.53,300.00 L 455.53,300.00 L 460.53,300.00 L 465.53,300.00 L 470.53,300.00 L 475.53,300.00 L 480.53,300.00 L 485.53,300.00 L 490.53,300.00 L 495.53,300.00 L 500.53,300.00 L 505.53,300.00 L 510.53,300.00"/>
  <path class="flow" d="M 542.11,300.00 L 547.11,300.00 L 552.11,300.00 L 557.11,300.00 L 562.11,300.00 L 567.11,300.00 L 572.11,300.00 L 577.11,300.00 L 582.11,300.00 L 587.11,300.00 L 592.11,300.00 L 597.11,300.00 L 602.11,300.00 L 607.11,300.00 L 612.11,300.00 L 617.11,300.00 L 622.11,300.00 L 627.11,300.00 L 632.11,300.00 L 637.11,300.00 L 642.11,300.00 L 647.11,300.00 L 652.11,300.00 L 657.11,300.00 L 662.11,300.00 L 667.11,300.00 L 672.11,300.00 L 677.11,300.00 L 682.11,300.00 L 687.11,300.00 L 692.11,300.00 L 697.11,300.00 L 702.11,300.00 L 707.11,300.00 L 712.11,300.00 L 717.11,300.00 L 722.11,300.00 L 727.11,300.00 L 732.11,300.00 L 737.11,300.00 L 742.11,300.00 L 747.11,300.00 L 752.11,300.00 L 757.11,300.00"/>
  <path class="flow" d="M 142.11,300.00 L 147.11,300.00 L 152.11,300.00 L 157.11,300.00 L 162.11,300.00 L 167.11,300.00 L 172.11,300.00 L 177.11,300.00 L 182.11,300.00 L 187.11,300.00 L 192.11,300.00 L 197.11,300.00 L 202.11,300.00 L 207.11,300.00 L 212.11,300.00 L 217.11,300.00 L 222.11,300.00 L 227.11,300.00 L 232.11,300.00 L 237.11,300.00 L 242.11,300.00 L 247.11,300.00 L 252.11,300.00 L 257.11,300.00 L 262.11,300.00 L 267.11,300.00 L 272.11,300.00 L 277.11,300.00 L 282.11,300.00 L 287.11,300.00 L 292.11,300.00 L 297.11,300.00 L 302.11,300.00 L 307.11,300.00 L 312.11,300.00 L 317.11,300.00 L 322.11,300.00 L 327.11,300.00 L 332.11,300.00 L 337.11,300.00 L 342.11,300.00 L 347.11,300.00 L 352.11,300.00 L 357.11,300.00 L 362.11,300.00 L 367.11,300.00 L 372.11,300.00 L 377.11,300.00 L 382.11,300.00 L 387.11,300.00 L 392.11,300.00 L 397.11,300.00 L 402.11,300.00 L 407.11,300.00 L 412.11,300.00 L 417.11,300.00 L 422.11,300.00 L 427.11,300.00 L 432.11,300.00 L 437.11,300.00 L 442.11,300.00 L 447.11,300.00 L 452.11,300.00 L 457.11,300.00 L 462.11,300.00 L 467.11,300.00 L 472.11,300.00 L 477.11,300.00 L 482.11,300.00 L 487.11,300.00 L 492.11,300.00 L 497.11,300.00 L 502.11,300.00 L 507.11,300.00 L 512.11,300.00 L 517.11,300.00 L 522.11,300.00 L 527.11,300.00 L 532.11,300.00 L 537.11,300.00 L 542.11,300.00"/>
  <path class="flow" d="M 573.68,300.00 L 578.68,300.00 L 583.68,300.00 L 588.68,300.00 L 593.68,300.00 L 598.68,300.00 L 603.68,300.00 L 608.68,300.00 L 613.68,300.00 L 618.68,300.00 L 623.68,300.00 L 628.68,300.00 L 633.68,300.00 L 638.68,300.00 L 643.68,300.00 L 648.68,300.00 L 653.68,300.00 L 658.68,300.00 L 663.68,300.00 L 668.68,300.00 L 673.68,300.00 L 678.68,300.00 L 683.68,300.00 L 688.68,300.00 L 693.68,300.00 L 698.68,300.00 L 703.68,300.00 L 708.68,300.00 L 713.68,300.00 L 718.68,300.00 L 723.68,300.00 L 728.68,300.00 L 733.68,300.00 L 738.68,300.00 L 743.68,300.00 L 748.68,300.00 L 753.68,300.00 L 758.68,300.00"/>
  <path class="flow" d="M 173.68,300.00 L 178.68,300.00 L 183.68,300.00 L 188.68,300.00 L 193.68,300.00 L 198.68,300.00 L 203.68,300.00 L 208.68,300.00 L 213.68,300.00 L 218.68,300.00 L 223.68,300.00 L 228.68,300.00 L 233.68,300.00 L 238.68,300.00 L 243.68,300.00 L 248.68,300.00 L 253.68,300.00 L 258.68,300.00 L 263.68,300.00 L 268.68,300.00 L 273.68,300.00 L 278.68,300.00 L 283.68,300.00 L 288.68,300.00 L 293.68,300.00 L 298.68,300.00 L 303.68,300.00 L 308.68,300.00 L 313.68,300.00 L 318.68,300.00 L 323.68,300.00 L 328.68,300.00 L 333.68,300.00 L 338.68,300.00 L 343.68,300.00 L 348.68,300.00 L 353.68,300.00 L 358.68,300.00 L 363.68,300.00 L 368.68,300.00 L 373.68,300.00 L 378.68,300.00 L 383.68,300.00 L 388.68,300.00 L 393.68,300.00 L 398.68,300.00 L 403.68,300.00 L 408.68,300.00 L 413.68,300.00 L 418.68,300.00 L 423.68,300.00 L 428.68,300.00 L 433.68,300.00 L 438.68,300.00 L 443.68,300.00 L 448.68,300.00 L 453.68,300.00 L 458.68,300.00 L 463.68,300.00 L 468.68,300.00 L 473.68,300.00 L 478.68,300.00 L 483.68,300.00 L 488.68,300.00 L 493.68,300.00 L 498.68,300.00 L 503.68,300.00 L 508.68,300.00 L 513.68,300.00 L 518.68,300.00 L 523.68,300.00 L 528.68,300.00 L 533.68,300.00 L 538.68,300.00 L 543.68,300.00 L 548.68,300.00 L 553.68,300.00 L 558.68,300.00 L 563.68,300.00 L 568.68,300.00 L 573.68,300.00"/>
  <path class="flow" d="M 605.26,300.00 L 610.26,300.00 L 615.26,300.00 L 620.26,300.00 L 625.26,300.00 L 630.26,300.00 L 635.26,300.00 L 640.26,300.00 L 645.26,300.00 L 650.26,300.00 L 655.26,300.00 L 660.26,300.00 L 665.26,300.00 L 670.26,300.00 L 675.26,300.00 L 680.26,300.00 L 685.26,300.00 L 690.26,300.00 L 695.26,300.00 L 700.26,300.00 L 705.26,300.00 L 710.26,300.00 L 715.26,300.00 L 720.26,300.00 L 725.26,300.00 L 730.26,300.00 L 735.26,300.00 L 740.26,300.00 L 745.26,300.00 L 750.26,300.00 L 755.26,300.00"/>
  <path class="flow" d="M 205.26,300.00 L 210.26,300.00 L 215.26,300.00 L 220.26,300.00 L 225.26,300.00 L 230.26,300.00 L 235.26,300.00 L 240.26,300.00 L 245.26,300.00 L 250.26,300.00 L 255.26,300.00 L 260.26,300.00 L 265.26,300.00 L 270.26,300.00 L 275.26,300.00 L 280.26,300.00 L 285.26,300.00 L 290.26,300.00 L 295.26,300.00 L 300.26,300.00 L 305.26,300.00 L 310.26,300.00 L 315.26,300.00 L 320.26,300.00 L 325.26,300.00 L 330.26,300.00 L 335.26,300.00 L 340.26,300.00 L 345.26,300.00 L 350.26,300.00 L 355.26,300.00 L 360.26,300.00 L 365.26,300.00 L 370.26,300.00 L 375.26,300.00 L 380.26,300.00 L 385.26,300.00 L 390.26,300.00 L 395.26,300.00 L 400.26,300.00 L 405.26,300.00 L 410.26,300.00 L 415.26,300.00 L 420.26,300.00 L 425.26,300.00 L 430.26,300.00 L 435.26,300.00 L 440.26,300.00 L 445.26,300.00 L 450.26,300.00 L 455.26,300.00 L 460.26,300.00 L 465.26,300.00 L 470.26,300.00 L 475.26,300.00 L 480.26,300.00 L 485.26,300.00 L 490.26,300.00 L 495.26,300.00 L 500.26,300.00 L 505.26,300.00 L 510.26,300.00 L 515.26,300.00 L 520.26,300.00 L 525.26,300.00 L 530.26,300.00 L 535.26,300.00 L 540.26,300.00 L 545.26,300.00 L 550.26,300.00 L 555.26,300.00 L 560.26,300.00 L 565.26,300.00 L 570.26,300.00 L 575.26,300.00 L 580.26,300.00 L 585.26,300.00 L 590.26,300.00 L 595.26,300.00 L 600.26,300.00 L 605.26,300.00"/>
  <path class="flow" d="M 636.84,300.00 L 641.84,300.00 L 646.84,300.00 L 651.84,300.00 L 656.84,300.00 L 661.84,300.00 L 666.84,300.00 L 671.84,300.00 L 676.84,300.00 L 681.84,300.00 L 686.84,300.00 L 691.84,300.00 L 696.84,300.00 L 701.84,300.00 L 706.84,300.00 L 711.84,300.00 L 716.84,300.00 L 721.84,300.00 L 726.84,300.00 L 731.84,300.00 L 736.84,300.00 L 741.84,300.00 L 746.84,300.00 L 751.84,300.00 L 756.84,300.00"/>
  <path class="flow" d="M 236.84,300.00 L 241.84,300.00 L 246.84,300.00 L 251.84,300.00 L 256.84,300.00 L 261.84,300.00 L 266.84,300.00 L 271.84,300.00 L 276.84,300.00 L 281.84,300.00 L 286.84,300.00 L 291.84,300.00 L 296.84,300.00 L 301.84,300.00 L 306.84,300.00 L 311.84,300.00 L 316.84,300.00 L 321.84,300.00 L 326.84,300.00 L 331.84,300.00 L 336.84,300.00 L 341.84,300.00 L 346.84,300.00 L 351.84,300.00 L 356.84,300.00 L 361.84,300.00 L 366.84,300.00 L 371.84,300.00 L 376.84,300.00 L 381.84,300.00 L 386.84,300.00 L 391.84,300.00 L 396.84,300.00 L 401.84,300.00 L 406.84,300.00 L 411.84,300.00 L 416.84,300.00 L 421.84,300.00 L 426.84,300.00 L 431.84,300.00 L 436.84,300.00 L 441.84,300.00 L 446.84,300.00 L 451.84,300.00 L 456.84,300.00 L 461.84,300.00 L 466.84,300.00 L 471.84,300.00 L 476.84,300.00 L 481.84,300.00 L 486.84,300.00 L 491.84,300.00 L 496.84,300.00 L 501.84,300.00 L 506.84,300.00 L 511.84,300.00 L 516.84,300.00 L 521.84,300.00 L 526.84,300.00 L 531.84,300.00 L 536.84,300.00 L 541.84,300.00 L 546.84,300.00 L 551.84,300.00 L 556.84,300.00 L 561.84,300.00 L 566.84,300.00 L 571.84,300.00 L 576.84,300.00 L 581.84,300.00 L 586.84,300.00 L 591.84,300.00 L 596.84,300.00 L 601.84,300.00 L 606.84,300.00 L 611.84,300.00 L 616.84,300.00 L 621.84,300.00 L 626.84,300.00 L 631.84,300.00 L 636.84,300.00"/>
  <path class="flow" d="M 668.42,300.00 L 673.42,300.00 L 678.42,300.00 L 683.42,300.00 L 688.42,300.00 L 693.42,300.00 L 698.42,300.00 L 703.42,300.00 L 708.42,300.00 L 713.42,300.00 L 718.42,300.00 L 723.42,300.00 L 728.42,300.00 L 733.42,300.00 L 738.42,300.00 L 743.42,300.00 L 748.42,300.00 L 753.42,300.00 L 758.42,300.00"/>
  <path class="flow" d="M 268.42,300.00 L 273.42,300.00 L 278.42,300.00 L 283.42,300.00 L 288.42,300.00 L 293.42,300.00 L 298.42,300.00 L 303.42,300.00 L 308.42,300.00 L 313.42,300.00 L 318.42,300.00 L 323.42,300.00 L 328.42,300.00 L 333.42,300.00 L 338.42,300.00 L 343.42,300.00 L 348.42,300.00 L 353.42,300.00 L 358.42,300.00 L 363.42,300.00 L 368.42,300.00 L 373.42,300.00 L 378.42,300.00 L 383.42,300.00 L 388.42,300.00 L 393.42,300.00 L 398.42,300.00 L 403.42,300.00 L 408.42,300.00 L 413.42,300.00 L 418.42,300.00 L 423.42,300.00 L 428.42,300.00 L 433.42,300.00 L 438.42,300.00 L 443.42,300.00 L 448.42,300.00 L 453.42,300.00 L 458.42,300.00 L 463.42,300.00 L 468.42,300.00 L 473.42,300.00 L 478.42,300.00 L 483.42,300.00 L 488.42,300.00 L 493.42,300.00 L 498.42,300.00 L 503.42,300.00 L 508.42,300.00 L 513.42,300.00 L 518.42,300.00 L 523.42,300.00 L 528.42,300.00 L 533.42,300.00 L 538.42,300.00 L 543.42,300.00 L 548.42,300.00 L 553.42,300.00 L 558.42,300.00 L 563.42,300.00 L 568.42,300.00 L 573.42,300.00 L 578.42,300.00 L 583.42,300.00 L 588.42,300.00 L 593.42,300.00 L 598.42,300.00 L 603.42,300.00 L 608.42,300.00 L 613.42,300.00 L 618.42,300.00 L 623.42,300.00 L 628.42,300.00 L 633.42,300.00 L 638.42,300.00 L 643.42,300.00 L 648.42,300.00 L 653.42,300.00 L 658.42,300.00 L 663.42,300.00 L 668.42,300.00"/>
  <path class="flow" d="M 700.00,300.00 L 705.00,300.00 L 710.00,300.00 L 715.00,300.00 L 720.00,300.00 L 725.00,300.00 L 730.00,300.00 L 735.00,300.00 L 740.00,300.00 L 745.00,300.00 L 750.00,300.00 L 755.00,300.00 L 760.00,300.00"/>
  <path class="flow" d="M 300.00,300.00 L 305.00,300.00 L 310.00,300.00 L 315.00,300.00 L 320.00,300.00 L 325.00,300.00 L 330.00,300.00 L 335.00,300.00 L 340.00,300.00 L 345.00,300.00 L 350.00,300.00 L 355.00,300.00 L 360.00,300.00 L 365.00,300.00 L 370.00,300.00 L 375.00,300.00 L 380.00,300.00 L 385.00,300.00 L 390.00,300.00 L 395.00,300.00 L 400.00,300.00 L 405.00,300.00 L 410.00,300.00 L 415.00,300.00 L 420.00,300.00 L 425.00,300.00 L 430.00,300.00 L 435.00,300.00 L 440.00,300.00 L 445.00,300.00 L 450.00,300.00 L 455.00,300.00 L 460.00,300.00 L 465.00,300.00 L 470.00,300.00 L 475.00,300.00 L 480.00,300.00 L 485.00,300.00 L 490.00,300.00 L 495.00,300.00 L 500.00,300.00 L 505.00,300.00 L 510.00,300.00 L 515.00,300.00 L 520.00,300.00 L 525.00,300.00 L 530.00,300.00 L 535.00,300.00 L 540.00,300.00 L 545.00,300.00 L 550.00,300.00 L 555.00,300.00 L 560.00,300.00 L 565.00,300.00 L 570.00,300.00 L 575.00,300.00 L 580.00,300.00 L 585.00,300.00 L 590.00,300.00 L 595.00,300.00 L 600.00,300.00 L 605.00,300.00 L 610.00,300.00 L 615.00,300.00 L 620.00,300.00 L 625.00,300.00 L 630.00,300.00 L 635.00,300.00 L 640.00,300.00 L 645.00,300.00 L 650.00,300.00 L 655.00,300.00 L 660.00,300.00 L 665.00,300.00 L 670.00,300.00 L 675.00,300.00 L 680.00,300.00 L 685.00,300.00 L 690.00,300.00 L 695.00,300.00 L 700.00,300.00"/>
</svg>