<?xml version="1.0" encoding="UTF-8"?>
<svg xmlns="http://www.w3.org/2000/svg" width="800" height="600" viewBox="0 0 800 600">
  <defs>
    <style>
      .seed { stroke: #e74c3c; stroke-width: 3; fill: none; }
      .flow { stroke: #3498db; stroke-width: 1; fill: none; opacity: 0.8; }
      .road { stroke: #2c3e50; stroke-width: 2; fill: none; }
      .parcel { stroke: #95a5a6; stroke-width: 0.5; fill: #ecf0f1; opacity: 0.6; }
      .bg { fill: #fafafa; }
    </style>
  </defs>
  <rect class="bg" width="800" height="600"/>
  <path class="seed" d="M 100.00,300.00 L 700.00,300.00"/>
  <path class="road" d="M 100.00,300.00 L 700.00,300.00"/>
  <path class="road" d="M 100.00,340.00 L 106.06,340.00 L 112.12,340.00 L 118.18,340.00 L 124.24,340.00 L 130.30,340.00 L 136.36,340.00 L 142.42,340.00 L 148.48,340.00 L 154.55,340.00 L 160.61,340.00 L 166.67,340.00 L 172.73,340.00 L 178.79,340.00 L 184.85,340.00 L 190.91,340.00 L 196.97,340.00 L 203.03,340.00 L 209.09,340.00 L 215.15,340.00 L 221.21,340.00 L 227.27,340.00 L 233.33,340.00 L 239.39,340.00 L 245.45,340.00 L 251.52,340.00 L 257.58,340.00 L 263.64,340.00 L 269.70,340.00 L 275.76,340.00 L 281.82,340.00 L 287.88,340.00 L 293.94,340.00 L 300.00,340.00 L 306.06,340.00 L 312.12,340.00 L 318.18,340.00 L 324.24,340.00 L 330.30,340.00 L 336.36,340.00 L 342.42,340.00 L 348.48,340.00 L 354.55,340.00 L 360.61,340.00 L 366.67,340.00 L 372.73,340.00 L 378.79,340.00 L 384.85,340.00 L 390.91,340.00 L 396.97,340.00 L 403.03,340.00 L 409.09,340.00 L 415.15,340.00 L 421.21,340.00 L 427.27,340.00 L 433.33,340.00 L 439.39,340.00 L 445.45,340.00 L 451.52,340.00 L 457.58,340.00 L 463.64,340.00 L 469.70,340.00 L 475.76,340.00 L 481.82,340.00 L 487.88,340.00 L 493.94,340.00 L 500.00,340.00 L 506.06,340.00 L 512.12,340.00 L 518.18,340.00 L 524.24,340.00 L 530.30,340.00 L 536.36,340.00 L 542.42,340.00 L 548.48,340.00 L 554.55,340.00 L 560.61,340.00 L 566.67,340.00 L 572.73,340.00 L 578.79,340.00 L 584.85,340.00 L 590.91,340.00 L 596.97,340.00 L 603.03,340.00 L 609.09,340.00 L 615.15,340.00 L 621.21,340.00 L 627.27,340.00 L 633.33,340.00 L 639.39,340.00 L 645.45,340.00 L 651.52,340.00 L 657.58,340.00 L 663.64,340.00 L 669.70,340.00 L 675.76,340.00 L 681.82,340.00 L 687.88,340.00 L 693.94,340.00 L 700.00,340.00"/>
  <path class="road" d="M 100.00,380.00 L 106.06,380.00 L 112.12,380.00 L 118.18,380.00 L 124.24,380.00 L 130.30,380.00 L 136.36,380.00 L 142.42,380.00 L 148.48,380.00 L 154.55,380.00 L 160.61,380.00 L 166.67,380.00 L 172.73,380.00 L 178.79,380.00 L 184.85,380.00 L 190.91,380.00 L 196.97,380.00 L 203.03,380.00 L 209.09,380.00 L 215.15,380.00 L 221.21,380.00 L 227.27,380.00 L 233.33,380.00 L 239.39,380.00 L 245.45,380.00 L 251.52,380.00 L 257.58,380.00 L 263.64,380.00 L 269.70,380.00 L 275.76,380.00 L 281.82,380.00 L 287.88,380.00 L 293.94,380.00 L 300.00,380.00 L 306.06,380.00 L 312.12,380.00 L 318.18,380.00 L 324.24,380.00 L 330.30,380.00 L 336.36,380.00 L 342.42,380.00 L 348.48,380.00 L 354.55,380.00 L 360.61,380.00 L 366.67,380.00 L 372.73,380.00 L 378.79,380.00 L 384.85,380.00 L 390.91,380.00 L 396.97,380.00 L 403.03,380.00 L 409.09,380.00 L 415.15,380.00 L 421.21,380.00 L 427.27,380.00 L 433.33,380.00 L 439.39,380.00 L 445.45,380.00 L 451.52,380.00 L 457.58,380.00 L 463.64,380.00 L 469.70,380.00 L 475.76,380.00 L 481.82,380.00 L 487.88,380.00 L 493.94,380.00 L 500.00,380.00 L 506.06,380.00 L 512.12,380.00 L 518.18,380.00 L 524.24,380.00 L 530.30,380.00 L 536.36,380.00 L 542.42,380.00 L 548.48,380.00 L 554.55,380.00 L 560.61,380.00 L 566.67,380.00 L 572.73,380.00 L 578.79,380.00 L 584.85,380.00 L 590.91,380.00 L 596.97,380.00 L 603.03,380.00 L 609.09,380.00 L 615.15,380.00 L 621.21,380.00 L 627.27,380.00 L 633.33,380.00 L 639.39,380.00 L 645.45,380.00 L 651.52,380.00 L 657.58,380.00 L 663.64,380.00 L 669.70,380.00 L 675.76,380.00 L 681.82,380.00 L 687.88,380.00 L 693.94,380.00 L 700.00,380.00"/>
  <path class="road" d="M 100.00,420.00 L 106.06,420.00 L 112.12,420.00 L 118.18,420.00 L 124.24,420.00 L 130.30,420.00 L 136.36,420.00 L 142.42,420.00 L 148.48,420.00 L 154.55,420.00 L 160.61,420.00 L 166.67,420.00 L 172.73,420.00 L 178.79,420.00 L 184.85,420.00 L 190.91,420.00 L 196.97,420.00 L 203.03,420.00 L 209.09,420.00 L 215.15,420.00 L 221.21,420.00 L 227.27,420.00 L 233.33,420.00 L 239.39,420.00 L 245.45,420.00 L 251.52,420.00 L 257.58,420.00 L 263.64,420.00 L 269.70,420.00 L 275.76,420.00 L 281.82,420.00 L 287.88,420.00 L 293.94,420.00 L 300.00,420.00 L 306.06,420.00 L 312.12,420.00 L 318.18,420.00 L 324.24,420.00 L 330.30,420.00 L 336.36,420.00 L 342.42,420.00 L 348.48,420.00 L 354.55,420.00 L 360.61,420.00 L 366.67,420.00 L 372.73,420.00 L 378.79,420.00 L 384.85,420.00 L 390.91,420.00 L 396.97,420.00 L 403.03,420.00 L 409.09,420.00 L 415.15,420.00 L 421.21,420.00 L 427.27,420.00 L 433.33,420.00 L 439.39,420.00 L 445.45,420.00 L 451.52,420.00 L 457.58,420.00 L 463.64,420.00 L 469.70,420.00 L 475.76,420.00 L 481.82,420.00 L 487.88,420.00 L 493.94,420.00 L 500.00,420.00 L 506.06,420.00 L 512.12,420.00 L 518.18,420.00 L 524.24,420.00 L 530.30,420.00 L 536.36,420.00 L 542.42,420.00 L 548.48,420.00 L 554.55,420.00 L 560.61,420.00 L 566.67,420.00 L 572.73,420.00 L 578.79,420.00 L 584.85,420.00 L 590.91,420.00 L 596.97,420.00 L 603.03,420.00 L 609.09,420.00 L 615.15,420.00 L 621.21,420.00 L 627.27,420.00 L 633.33,420.00 L 639.39,420.00 L 645.45,420.00 L 651.52,420.00 L 657.58,420.00 L 663.64,420.00 L 669.70,420.00 L 675.76,420.00 L 681.82,420.00 L 687.88,420.00 L 693.94,420.00 L 700.00,420.00"/>
  <path class="road" d="M 100.00,460.00 L 106.06,460.00 L 112.12,460.00 L 118.18,460.00 L 124.24,460.00 L 130.30,460.00 L 136.36,460.00 L 142.42,460.00 L 148.48,460.00 L 154.55,460.00 L 160.61,460.00 L 166.67,460.00 L 172.73,460.00 L 178.79,460.00 L 184.85,460.00 L 190.91,460.00 L 196.97,460.00 L 203.03,460.00 L 209.09,460.00 L 215.15,460.00 L 221.21,460.00 L 227.27,460.00 L 233.33,460.00 L 239.39,460.00 L 245.45,460.00 L 251.52,460.00 L 257.58,460.00 L 263.64,460.00 L 269.70,460.00 L 275.76,460.00 L 281.82,460.00 L 287.88,460.00 L 293.94,460.00 L 300.00,460.00 L 306.06,460.00 L 312.12,460.00 L 318.18,460.00 L 324.24,460.00 L 330.30,460.00 L 336.36,460.00 L 342.42,460.00 L 348.48,460.00 L 354.55,460.00 L 360.61,460.00 L 366.67,460.00 L 372.73,460.00 L 378.79,460.00 L 384.85,460.00 L 390.91,460.00 L 396.97,460.00 L 403.03,460.00 L 409.09,460.00 L 415.15,460.00 L 421.21,460.00 L 427.27,460.00 L 433.33,460.00 L 439.39,460.00 L 445.45,460.00 L 451.52,460.00 L 457.58,460.00 L 463.64,460.00 L 469.70,460.00 L 475.76,460.00 L 481.82,460.00 L 487.88,460.00 L 493.94,460.00 L 500.00,460.00 L 506.06,460.00 L 512.12,460.00 L 518.18,460.00 L 524.24,460.00 L 530.30,460.00 L 536.36,460.00 L 542.42,460.00 L 548.48,460.00 L 554.55,460.00 L 560.61,460.00 L 566.67,460.00 L 572.73,460.00 L 578.79,460.00 L 584.85,460.00 L 590.91,460.00 L 596.97,460.00 L 603.03,460.00 L 609.09,460.00 L 615.15,460.00 L 621.21,460.00 L 627.27,460.00 L 633.33,460.00 L 639.39,460.00 L 645.45,460.00 L 651.52,460.00 L 657.58,460.00 L 663.64,460.00 L 669.70,460.00 L 675.76,460.00 L 681.82,460.00 L 687.88,460.00 L 693.94,460.00 L 700.00,460.00"/>
  <path class="road" d="M 100.00,500.00 L 106.06,500.00 L 112.12,500.00 L 118.18,500.00 L 124.24,500.00 L 130.30,500.00 L 136.36,500.00 L 142.42,500.00 L 148.48,500.00 L 154.55,500.00 L 160.61,500.00 L 166.67,500.00 L 172.73,500.00 L 178.79,500.00 L 184.85,500.00 L 190.91,500.00 L 196.97,500.00 L 203.03,500.00 L 209.09,500.00 L 215.15,500.00 L 221.21,500.00 L 227.27,500.00 L 233.33,500.00 L 239.39,500.00 L 245.45,500.00 L 251.52,500.00 L 257.58,500.00 L 263.64,500.00 L 269.70,500.00 L 275.76,500.00 L 281.82,500.00 L 287.88,500.00 L 293.94,500.00 L 300.00,500.00 L 306.06,500.00 L 312.12,500.00 L 318.18,500.00 L 324.24,500.00 L 330.30,500.00 L 336.36,500.00 L 342.42,500.00 L 348.48,500.00 L 354.55,500.00 L 360.61,500.00 L 366.67,500.00 L 372.73,500.00 L 378.79,500.00 L 384.85,500.00 L 390.91,500.00 L 396.97,500.00 L 403.03,500.00 L 409.09,500.00 L 415.15,500.00 L 421.21,500.00 L 427.27,500.00 L 433.33,500.00 L 439.39,500.00 L 445.45,500.00 L 451.52,500.00 L 457.58,500.00 L 463.64,500.00 L 469.70,500.00 L 475.76,500.00 L 481.82,500.00 L 487.88,500.00 L 493.94,500.00 L 500.00,500.00 L 506.06,500.00 L 512.12,500.00 L 518.18,500.00 L 524.24,500.00 L 530.30,500.00 L 536.36,500.00 L 542.42,500.00 L 548.48,500.00 L 554.55,500.00 L 560.61,500.00 L 566.67,500.00 L 572.73,500.00 L 578.79,500.00 L 584.85,500.00 L 590.91,500.00 L 596.97,500.00 L 603.03,500.00 L 609.09,500.00 L 615.15,500.00 L 621.21,500.00 L 627.27,500.00 L 633.33,500.00 L 639.39,500.00 L 645.45,500.00 L 651.52,500.00 L 657.58,500.00 L 663.64,500.00 L 669.70,500.00 L 675.76,500.00 L 681.82,500.00 L 687.88,500.00 L 693.94,500.00 L 700.00,500.00"/>
  <path class="road" d="M 100.00,540.00 L 106.06,540.00 L 112.12,540.00 L 118.18,540.00 L 124.24,540.00 L 130.30,540.00 L 136.36,540.00 L 142.42,540.00 L 148.48,540.00 L 154.55,540.00 L 160.61,540.00 L 166.67,540.00 L 172.73,540.00 L 178.79,540.00 L 184.85,540.00 L 190.91,540.00 L 196.97,540.00 L 203.03,540.00 L 209.09,540.00 L 215.15,540.00 L 221.21,540.00 L 227.27,540.00 L 233.33,540.00 L 239.39,540.00 L 245.45,540.00 L 251.52,540.00 L 257.58,540.00 L 263.64,540.00 L 269.70,540.00 L 275.76,540.00 L 281.82,540.00 L 287.88,540.00 L 293.94,540.00 L 300.00,540.00 L 306.06,540.00 L 312.12,540.00 L 318.18,540.00 L 324.24,540.00 L 330.30,540.00 L 336.36,540.00 L 342.42,540.00 L 348.48,540.00 L 354.55,540.00 L 360.61,540.00 L 366.67,540.00 L 372.73,540.00 L 378.79,540.00 L 384.85,540.00 L 390.91,540.00 L 396.97,540.00 L 403.03,540.00 L 409.09,540.00 L 415.15,540.00 L 421.21,540.00 L 427.27,540.00 L 433.33,540.00 L 439.39,540.00 L 445.45,540.00 L 451.52,540.00 L 457.58,540.00 L 463.64,540.00 L 469.70,540.00 L 475.76,540.00 L 481.82,540.00 L 487.88,540.00 L 493.94,540.00 L 500.00,540.00 L 506.06,540.00 L 512.12,540.00 L 518.18,540.00 L 524.24,540.00 L 530.30,540.00 L 536.36,540.00 L 542.42,540.00 L 548.48,540.00 L 554.55,540.00 L 560.61,540.00 L 566.67,540.00 L 572.73,540.00 L 578.79,540.00 L 584.85,540.00 L 590.91,540.00 L 596.97,540.00 L 603.03,540.00 L 609.09,540.00 L 615.15,540.00 L 621.21,540.00 L 627.27,540.00 L 633.33,540.00 L 639.39,540.00 L 645.45,540.00 L 651.52,540.00 L 657.58,540.00 L 663.64,540.00 L 669.70,540.00 L 675.76,540.00 L 681.82,540.00 L 687.88,540.00 L 693.94,540.00 L 700.00,540.00"/>
  <path class="road" d="M 100.00,340.00 L 106.06,340.00 L 112.12,340.00 L 118.18,340.00 L 124.24,340.00 L 130.30,340.00 L 136.36,340.00 L 142.42,340.00 L 148.48,340.00 L 154.55,340.00 L 160.61,340.00 L 166.67,340.00 L 172.73,340.00 L 178.79,340.00 L 184.85,340.00 L 190.91,340.00 L 196.97,340.00 L 203.03,340.00 L 209.09,340.00 L 215.15,340.00 L 221.21,340.00 L 227.27,340.00 L 233.33,340.00 L 239.39,340.00 L 245.45,340.00 L 251.52,340.00 L 257.58,340.00 L 263.64,340.00 L 269.70,340.00 L 275.76,340.00 L 281.82,340.00 L 287.88,340.00 L 293.94,340.00 L 300.00,340.00 L 306.06,340.00 L 312.12,340.00 L 318.18,340.00 L 324.24,340.00 L 330.30,340.00 L 336.36,340.00 L 342.42,340.00 L 348.48,340.00 L 354.55,340.00 L 360.61,340.00 L 366.67,340.00 L 372.73,340.00 L 378.79,340.00 L 384.85,340.00 L 390.91,340.00 L 396.97,340.00 L 403.03,340.00 L 409.09,340.00 L 415.15,340.00 L 421.21,340.00 L 427.27,340.00 L 433.33,340.00 L 439.39,340.00 L 445.45,340.00 L 451.52,340.00 L 457.58,340.00 L 463.64,340.00 L 469.70,340.00 L 475.76,340.00 L 481.82,340.00 L 487.88,340.00 L 493.94,340.00 L 500.00,340.00 L 506.06,340.00 L 512.12,340.00 L 518.18,340.00 L 524.24,340.00 L 530.30,340.00 L 536.36,340.00 L 542.42,340.00 L 548.48,340.00 L 554.55,340.00 L 560.61,340.00 L 566.67,340.00 L 572.73,340.00 L 578.79,340.00 L 584.85,340.00 L 590.91,340.00 L 596.97,340.00 L 603.03,340.00 L 609.09,340.00 L 615.15,340.00 L 621.21,340.00 L 627.27,340.00 L 633.33,340.00 L 639.39,340.00 L 645.45,340.00 L 651.52,340.00 L 657.58,340.00 L 663.64,340.00 L 669.70,340.00 L 675.76,340.00 L 681.82,340.00 L 687.88,340.00 L 693.94,340.00 L 700.00,340.00"/>
  <path class="road" d="M 100.00,380.00 L 106.06,380.00 L 112.12,380.00 L 118.18,380.00 L 124.24,380.00 L 130.30,380.00 L 136.36,380.00 L 142.42,380.00 L 148.48,380.00 L 154.55,380.00 L 160.61,380.00 L 166.67,380.00 L 172.73,380.00 L 178.79,380.00 L 184.85,380.00 L 190.91,380.00 L 196.97,380.00 L 203.03,380.00 L 209.09,380.00 L 215.15,380.00 L 221.21,380.00 L 227.27,380.00 L 233.33,380.00 L 239.39,380.00 L 245.45,380.00 L 251.52,380.00 L 257.58,380.00 L 263.64,380.00 L 269.70,380.00 L 275.76,380.00 L 281.82,380.00 L 287.88,380.00 L 293.94,380.00 L 300.00,380.00 L 306.06,380.00 L 312.12,380.00 L 318.18,380.00 L 324.24,380.00 L 330.30,380.00 L 336.36,380.00 L 342.42,380.00 L 348.48,380.00 L 354.55,380.00 L 360.61,380.00 L 366.67,380.00 L 372.73,380.00 L 378.79,380.00 L 384.85,380.00 L 390.91,380.00 L 396.97,380.00 L 403.03,380.00 L 409.09,380.00 L 415.15,380.00 L 421.21,380.00 L 427.27,380.00 L 433.33,380.00 L 439.39,380.00 L 445.45,380.00 L 451.52,380.00 L 457.58,380.00 L 463.64,380.00 L 469.70,380.00 L 475.76,380.00 L 481.82,380.00 L 487.88,380.00 L 493.94,380.00 L 500.00,380.00 L 506.06,380.00 L 512.12,380.00 L 518.18,380.00 L 524.24,380.00 L 530.30,380.00 L 536.36,380.00 L 542.42,380.00 L 548.48,380.00 L 554.55,380.00 L 560.61,380.00 L 566.67,380.00 L 572.73,380.00 L 578.79,380.00 L 584.85,380.00 L 590.91,380.00 L 596.97,380.00 L 603.03,380.00 L 609.09,380.00 L 615.15,380.00 L 621.21,380.00 L 627.27,380.00 L 633.33,380.00 L 639.39,380.00 L 645.45,380.00 L 651.52,380.00 L 657.58,380.00 L 663.64,380.00 L 669.70,380.00 L 675.76,380.00 L 681.82,380.00 L 687.88,380.00 L 693.94,380.00 L 700.00,380.00"/>
  <path class="road" d="M 100.00,420.00 L 106.06,420.00 L 112.12,420.00 L 118.18,420.00 L 124.24,420.00 L 130.30,420.00 L 136.36,420.00 L 142.42,420.00 L 148.48,420.00 L 154.55,420.00 L 160.61,420.00 L 166.67,420.00 L 172.73,420.00 L 178.79,420.00 L 184.85,420.00 L 190.91,420.00 L 196.97,420.00 L 203.03,420.00 L 209.09,420.00 L 215.15,420.00 L 221.21,420.00 L 227.27,420.00 L 233.33,420.00 L 239.39,420.00 L 245.45,420.00 L 251.52,420.00 L 257.58,420.00 L 263.64,420.00 L 269.70,420.00 L 275.76,420.00 L 281.82,420.00 L 287.88,420.00 L 293.94,420.00 L 300.00,420.00 L 306.06,420.00 L 312.12,420.00 L 318.18,420.00 L 324.24,420.00 L 330.30,420.00 L 336.36,420.00 L 342.42,420.00 L 348.48,420.00 L 354.55,420.00 L 360.61,420.00 L 366.67,420.00 L 372.73,420.00 L 378.79,420.00 L 384.85,420.00 L 390.91,420.00 L 396.97,420.00 L 403.03,420.00 L 409.09,420.00 L 415.15,420.00 L 421.21,420.00 L 427.27,420.00 L 433.33,420.00 L 439.39,420.00 L 445.45,420.00 L 451.52,420.00 L 457.58,420.00 L 463.64,420.00 L 469.70,420.00 L 475.76,420.00 L 481.82,420.00 L 487.88,420.00 L 493.94,420.00 L 500.00,420.00 L 506.06,420.00 L 512.12,420.00 L 518.18,420.00 L 524.24,420.00 L 530.30,420.00 L 536.36,420.00 L 542.42,420.00 L 548.48,420.00 L 554.55,420.00 L 560.61,420.00 L 566.67,420.00 L 572.73,420.00 L 578.79,420.00 L 584.85,420.00 L 590.91,420.00 L 596.97,420.00 L 603.03,420.00 L 609.09,420.00 L 615.15,420.00 L 621.21,420.00 L 627.27,420.00 L 633.33,420.00 L 639.39,420.00 L 645.45,420.00 L 651.52,420.00 L 657.58,420.00 L 663.64,420.00 L 669.70,420.00 L 675.76,420.00 L 681.82,420.00 L 687.88,420.00 L 693.94,420.00 L 700.00,420.00"/>
  <path class="road" d="M 100.00,460.00 L 106.06,460.00 L 112.12,460.00 L 118.18,460.00 L 124.24,460.00 L 130.30,460.00 L 136.36,460.00 L 142.42,460.00 L 148.48,460.00 L 154.55,460.00 L 160.61,460.00 L 166.67,460.00 L 172.73,460.00 L 178.79,460.00 L 184.85,460.00 L 190.91,460.00 L 196.97,460.00 L 203.03,460.00 L 209.09,460.00 L 215.15,460.00 L 221.21,460.00 L 227.27,460.00 L 233.33,460.00 L 239.39,460.00 L 245.45,460.00 L 251.52,460.00 L 257.58,460.00 L 263.64,460.00 L 269.70,460.00 L 275.76,460.00 L 281.82,460.00 L 287.88,460.00 L 293.94,460.00 L 300.00,460.00 L 306.06,460.00 L 312.12,460.00 L 318.18,460.00 L 324.24,460.00 L 330.30,460.00 L 336.36,460.00 L 342.42,460.00 L 348.48,460.00 L 354.55,460.00 L 360.61,460.00 L 366.67,460.00 L 372.73,460.00 L 378.79,460.00 L 384.85,460.00 L 390.91,460.00 L 396.97,460.00 L 403.03,460.00 L 409.09,460.00 L 415.15,460.00 L 421.21,460.00 L 427.27,460.00 L 433.33,460.00 L 439.39,460.00 L 445.45,460.00 L 451.52,460.00 L 457.58,460.00 L 463.64,460.00 L 469.70,460.00 L 475.76,460.00 L 481.82,460.00 L 487.88,460.00 L 493.94,460.00 L 500.00,460.00 L 506.06,460.00 L 512.12,460.00 L 518.18,460.00 L 524.24,460.00 L 530.30,460.00 L 536.36,460.00 L 542.42,460.00 L 548.48,460.00 L 554.55,460.00 L 560.61,460.00 L 566.67,460.00 L 572.73,460.00 L 578.79,460.00 L 584.85,460.00 L 590.91,460.00 L 596.97,460.00 L 603.03,460.00 L 609.09,460.00 L 615.15,460.00 L 621.21,460.00 L 627.27,460.00 L 633.33,460.00 L 639.39,460.00 L 645.45,460.00 L 651.52,460.00 L 657.58,460.00 L 663.64,460.00 L 669.70,460.00 L 675.76,460.00 L 681.82,460.00 L 687.88,460.00 L 693.94,460.00 L 700.00,460.00"/>
  <path class="road" d="M 100.00,500.00 L 106.06,500.00 L 112.12,500.00 L 118.18,500.00 L 124.24,500.00 L 130.30,500.00 L 136.36,500.00 L 142.42,500.00 L 148.48,500.00 L 154.55,500.00 L 160.61,500.00 L 166.67,500.00 L 172.73,500.00 L 178.79,500.00 L 184.85,500.00 L 190.91,500.00 L 196.97,500.00 L 203.03,500.00 L 209.09,500.00 L 215.15,500.00 L 221.21,500.00 L 227.27,500.00 L 233.33,500.00 L 239.39,500.00 L 245.45,500.00 L 251.52,500.00 L 257.58,500.00 L 263.64,500.00 L 269.70,500.00 L 275.76,500.00 L 281.82,500.00 L 287.88,500.00 L 293.94,500.00 L 300.00,500.00 L 306.06,500.00 L 312.12,500.00 L 318.18,500.00 L 324.24,500.00 L 330.30,500.00 L 336.36,500.00 L 342.42,500.00 L 348.48,500.00 L 354.55,500.00 L 360.61,500.00 L 366.67,500.00 L 372.73,500.00 L 378.79,500.00 L 384.85,500.00 L 390.91,500.00 L 396.97,500.00 L 403.03,500.00 L 409.09,500.00 L 415.15,500.00 L 421.21,500.00 L 427.27,500.00 L 433.33,500.00 L 439.39,500.00 L 445.45,500.00 L 451.52,500.00 L 457.58,500.00 L 463.64,500.00 L 469.70,500.00 L 475.76,500.00 L 481.82,500.00 L 487.88,500.00 L 493.94,500.00 L 500.00,500.00 L 506.06,500.00 L 512.12,500.00 L 518.18,500.00 L 524.24,500.00 L 530.30,500.00 L 536.36,500.00 L 542.42,500.00 L 548.48,500.00 L 554.55,500.00 L 560.61,500.00 L 566.67,500.00 L 572.73,500.00 L 578.79,500.00 L 584.85,500.00 L 590.91,500.00 L 596.97,500.00 L 603.03,500.00 L 609.09,500.00 L 615.15,500.00 L 621.21,500.00 L 627.27,500.00 L 633.33,500.00 L 639.39,500.00 L 645.45,500.00 L 651.52,500.00 L 657.58,500.00 L 663.64,500.00 L 669.70,500.00 L 675.76,500.00 L 681.82,500.00 L 687.88,500.00 L 693.94,500.00 L 700.00,500.00"/>
  <path class="road" d="M 100.00,540.00 L 106.06,540.00 L 112.12,540.00 L 118.18,540.00 L 124.24,540.00 L 130.30,540.00 L 136.36,540.00 L 142.42,540.00 L 148.48,540.00 L 154.55,540.00 L 160.61,540.00 L 166.67,540.00 L 172.73,540.00 L 178.79,540.00 L 184.85,540.00 L 190.91,540.00 L 196.97,540.00 L 203.03,540.00 L 209.09,540.00 L 215.15,540.00 L 221.21,540.00 L 227.27,540.00 L 233.33,540.00 L 239.39,540.00 L 245.45,540.00 L 251.52,540.00 L 257.58,540.00 L 263.64,540.00 L 269.70,540.00 L 275.76,540.00 L 281.82,540.00 L 287.88,540.00 L 293.94,540.00 L 300.00,540.00 L 306.06,540.00 L 312.12,540.00 L 318.18,540.00 L 324.24,540.00 L 330.30,540.00 L 336.36,540.00 L 342.42,540.00 L 348.48,540.00 L 354.55,540.00 L 360.61,540.00 L 366.67,540.00 L 372.73,540.00 L 378.79,540.00 L 384.85,540.00 L 390.91,540.00 L 396.97,540.00 L 403.03,540.00 L 409.09,540.00 L 415.15,540.00 L 421.21,540.00 L 427.27,540.00 L 433.33,540.00 L 439.39,540.00 L 445.45,540.00 L 451.52,540.00 L 457.58,540.00 L 463.64,540.00 L 469.70,540.00 L 475.76,540.00 L 481.82,540.00 L 487.88,540.00 L 493.94,540.00 L 500.00,540.00 L 506.06,540.00 L 512.12,540.00 L 518.18,540.00 L 524.24,540.00 L 530.30,540.00 L 536.36,540.00 L 542.42,540.00 L 548.48,540.00 L 554.55,540.00 L 560.61,540.00 L 566.67,540.00 L 572.73,540.00 L 578.79,540.00 L 584.85,540.00 L 590.91,540.00 L 596.97,540.00 L 603.03,540.00 L 609.09,540.00 L 615.15,540.00 L 621.21,540.00 L 627.27,540.00 L 633.33,540.00 L 639.39,540.00 L 645.45,540.00 L 651.52,540.00 L 657.58,540.00 L 663.64,540.00 L 669.70,540.00 L 675.76,540.00 L 681.82,540.00 L 687.88,540.00 L 693.94,540.00 L 700.00,540.00"/>
  <path class="road" d="M 100.00,40.00 L 100.00,560.00"/>
  <path class="road" d="M 180.00,40.00 L 180.00,560.00"/>
  <path class="road" d="M 260.00,40.00 L 260.00,560.00"/>
  <path class="road" d="M 340.00,40.00 L 340.00,560.00"/>
  <path class="road" d="M 420.00,40.00 L 420.00,560.00"/>
  <path class="road" d="M 500.00,40.00 L 500.00,560.00"/>
  <path class="road" d="M 580.00,40.00 L 580.00,560.00"/>
  <path class="road" d="M 660.00,40.00 L 660.00,560.00"/>
  <path class="road" d="M 700.00,40.00 L 700.00,560.00"/>
</svg>